<svg xmlns="http://www.w3.org/2000/svg" width="223.274" height="76.765" viewBox="0 0 223.274 76.765">
  <g id="Group_13" data-name="Group 13" transform="translate(-15.744 -329.334)">
    <g id="Group_11" data-name="Group 11" transform="translate(15.744 329.334)">
      <path id="Path_1" data-name="Path 1" d="M84.973,372.6a31.221,31.221,0,1,1-6.632-24.651l7.056-2.441A38.377,38.377,0,1,0,92.17,372.6Z" transform="translate(-15.744 -329.334)" fill="#3e3e3c"/>
      <path id="Path_2" data-name="Path 2" d="M155.963,420.5l-2.484-7.707-7.692,4.374,1.419.463L137.327,437l-.094-.247v0L129.5,416.3h-7.779l-13.817,29.057H102.7v3.258h3.655l-1.627,3.426-1.737,3.651h8.728l1.736-3.651,1.628-3.426h16.369l2.642,7.077h3.236l16.865-35.77Zm-39.331,24.855,7.61-16.008,5.985,16.008Z" transform="translate(-83.141 -394.025)" fill="#92c03e"/>
      <g id="Group_10" data-name="Group 10" transform="translate(10.776 11.427)">
        <path id="Path_3" data-name="Path 3" d="M83.22,384.628l-.953-4.483a29.805,29.805,0,0,0-18.142,32.82l4.39-1.328A25.324,25.324,0,0,1,83.22,384.628Z" transform="translate(-63.66 -380.145)" fill="#3e3e3c" fill-rule="evenodd"/>
        <path id="Path_4" data-name="Path 4" d="M106.638,413.146l-.982-4.61a23.42,23.42,0,0,0-13.264,24.583l4.387-1.325a18.885,18.885,0,0,1,9.859-18.647Z" transform="translate(-85.74 -402.151)" fill="#3e3e3c" fill-rule="evenodd"/>
        <path id="Path_5" data-name="Path 5" d="M123.393,444.219a14.957,14.957,0,0,0-1.973,9.958l4.388-1.322a10.71,10.71,0,0,1,1.431-6.36,11.59,11.59,0,0,1,3.354-3.524l-.938-4.687a15.431,15.431,0,0,0-6.263,5.934Z" transform="translate(-108.294 -425.209)" fill="#3e3e3c" fill-rule="evenodd"/>
      </g>
    </g>
    <text id="Wireless_Technologies_Pvt._Ltd." data-name="Wireless Technologies Pvt. Ltd." transform="translate(103.748 401.698)" fill="#3e3e3c" font-size="9" font-family="Bahnschrift-SemiBold, Bahnschrift" font-weight="600" letter-spacing="0.02em"><tspan x="0" y="0">Wireless Technologies Pvt. Ltd.</tspan></text>
    <g id="Group_12" data-name="Group 12" transform="translate(103.73 340.841)">
      <path id="Path_6" data-name="Path 6" d="M654,412.629c0,4.4,0,8,0,11.607,0,.9,0,.9-.927.9q-3.025,0-6.05,0c-.163,0-.326,0-.488-.012a.363.363,0,0,1-.381-.387c-.009-.224-.012-.448-.012-.672,0-6.985.02-13.969-.011-20.954A16.561,16.561,0,0,0,644.213,395a12.718,12.718,0,0,0-10.061-6.892,14.7,14.7,0,0,0-7.435.92,13.073,13.073,0,0,0-5.878,4.89,14.765,14.765,0,0,0-2.453,7.077,18.52,18.52,0,0,0,1,8.413,14.078,14.078,0,0,0,4.844,6.386,13.061,13.061,0,0,0,6.539,2.5,16.778,16.778,0,0,0,11.145-2.8c.378-.241.742-.5,1.115-.752.13-.086.251-.25.429-.146s.12.287.132.445c.006.081,0,.163,0,.244,0,2.26-.018,4.521.012,6.781a1.159,1.159,0,0,1-.732,1.185,23.877,23.877,0,0,1-8.933,2.526,21.745,21.745,0,0,1-8.8-.994,20.7,20.7,0,0,1-6.969-3.955,21.7,21.7,0,0,1-6.253-8.681A23.454,23.454,0,0,1,610.427,406a25.795,25.795,0,0,1,2.215-13.678,21.4,21.4,0,0,1,9.07-9.38,20.071,20.071,0,0,1,6.711-2.167,25.257,25.257,0,0,1,5.3-.217,21.528,21.528,0,0,1,19.306,15.422,23.351,23.351,0,0,1,.841,5.234C654.14,405.279,653.918,409.352,654,412.629Z" transform="translate(-564.546 -380.501)" fill="#95c149"/>
      <path id="Path_7" data-name="Path 7" d="M414.811,411.521q0,6.354,0,12.707c0,.911,0,.913-.919.913q-2.995,0-5.989,0c-.163,0-.326,0-.489-.008a.385.385,0,0,1-.424-.414c0-.143-.01-.285-.009-.428,0-8.146-.035-16.292.029-24.437a21.415,21.415,0,0,1,2.265-9.675,16.656,16.656,0,0,1,13-9.426,21.963,21.963,0,0,1,8.073.264,16.02,16.02,0,0,1,7.372,3.755,18.057,18.057,0,0,1,5.27,8.432,25.851,25.851,0,0,1,1.057,6.8c.205,8.1.032,16.207.09,24.31,0,.122,0,.244-.012.366a.429.429,0,0,1-.462.456c-.143,0-.285.007-.428.007h-6.05c-.163,0-.326,0-.488-.013a.364.364,0,0,1-.379-.39c-.008-.224-.012-.448-.012-.672q0-12-.007-24.009a13.715,13.715,0,0,0-.849-5.092,9.9,9.9,0,0,0-8.247-6.68,10.393,10.393,0,0,0-11.52,6.547,13.519,13.519,0,0,0-.874,4.959C414.82,403.7,414.811,407.611,414.811,411.521Z" transform="translate(-406.971 -380.501)" fill="#95c149"/>
      <path id="Path_8" data-name="Path 8" d="M847.564,418.406c.174-.112.179-.312.239-.478q2.978-8.243,5.951-16.488,1.866-5.17,3.734-10.34,1.109-3.073,2.218-6.147c.2-.544.262-.6.845-.6q3.422-.007,6.845,0a1.83,1.83,0,0,1,.183,0c.359.037.409.113.306.479-.022.078-.055.153-.083.23q-3.252,8.793-6.5,17.586-2.546,6.873-5.1,13.743c-.984,2.653-1.954,5.311-2.952,7.959a9.164,9.164,0,0,1-1.659,2.833,4.875,4.875,0,0,1-3.666,1.8,7.687,7.687,0,0,1-1.645-.068,5.276,5.276,0,0,1-3.59-2.706,17.359,17.359,0,0,1-1.393-3.05q-1.209-3.329-2.435-6.653-1.453-3.956-2.912-7.91l-5.486-14.9-3.207-8.712c-.028-.076-.061-.151-.086-.229-.071-.219,0-.363.237-.388a4.773,4.773,0,0,1,.488-.017q3.239,0,6.478,0c.739,0,.745,0,1,.7q2,5.512,3.992,11.027,1.457,4.019,2.922,8.036,1.77,4.88,3.536,9.761.759,2.1,1.523,4.191C847.386,418.2,847.387,418.36,847.564,418.406Z" transform="translate(-732.644 -383.488)" fill="#95c149"/>
    </g>
  </g>
</svg>
