<svg id="Layer_1" data-name="Layer 1" xmlns="http://www.w3.org/2000/svg" viewBox="0 0 230 80"><defs><style>.cls-1{fill:none;}.cls-2,.cls-4{fill:#fff;}.cls-3{fill:#92c03e;}.cls-4{fill-rule:evenodd;}.cls-5{isolation:isolate;}.cls-6{fill:#95c149;}</style></defs><rect class="cls-1" width="230" height="80"/><path id="Path_1" data-name="Path 1" class="cls-2" d="M68.24,44.66a29.77,29.77,0,1,1-6.32-23.5l6.73-2.33a36.58,36.58,0,1,0,6.46,25.83Z"/><path id="Path_2" data-name="Path 2" class="cls-3" d="M71.67,28.66,69.3,21.31,62,25.48l1.35.44L53.9,44.39l-.09-.23h0L46.44,24.65H39L25.85,52.35h-5v3.11h3.48l-1.55,3.27-1.65,3.48h8.32l1.65-3.48,1.56-3.27h15.6l2.52,6.75H53.9L70,28.1Zm-37.5,23.7,7.26-15.27,5.7,15.27Z"/><g id="Group_1" data-name="Group 1"><path id="Path_3" data-name="Path 3" class="cls-4" d="M31.16,18.58l-.91-4.27A28.41,28.41,0,0,0,13,45.6l4.19-1.26a24.15,24.15,0,0,1,14-25.76Z"/><path id="Path_4" data-name="Path 4" class="cls-4" d="M32.43,24.79l-.93-4.4A22.32,22.32,0,0,0,18.85,43.83L23,42.57a18,18,0,0,1,9.4-17.78Z"/><path id="Path_5" data-name="Path 5" class="cls-4" d="M26.91,32.43A14.24,14.24,0,0,0,25,41.93l4.19-1.26a10.2,10.2,0,0,1,1.36-6.06,11,11,0,0,1,3.2-3.36l-.9-4.48a14.79,14.79,0,0,0-6,5.66Z"/></g><g id="Wireless_Technologies_Pvt._Ltd." data-name="Wireless Technologies Pvt. Ltd." class="cls-5"><g class="cls-5"><path class="cls-2" d="M89,65.44h.66l1.39,5.33,1.2-5.33h1l-1.66,6.8h-1L89.4,67.49l-1.31,4.75h-1l-1.66-6.8h1l1.2,5.33Z"/><path class="cls-2" d="M94.36,65.44h1v1h-1Zm0,2h1v4.85h-1Z"/><path class="cls-2" d="M97,67.39h1v4.85H97Zm2.35.91a1.19,1.19,0,0,0-.44-.08,1,1,0,0,0-.71.25,1,1,0,0,0-.25.7l-.09-.94a1.74,1.74,0,0,1,.58-.67,1.33,1.33,0,0,1,.78-.24,1.89,1.89,0,0,1,.6.09,1.47,1.47,0,0,1,.47.28l-.62.85A.77.77,0,0,0,99.31,68.3Z"/><path class="cls-2" d="M102,72.06a1.71,1.71,0,0,1-.72-.74,2.54,2.54,0,0,1-.26-1.18v-.55a2.73,2.73,0,0,1,.25-1.23,1.72,1.72,0,0,1,.7-.78,2.11,2.11,0,0,1,1.1-.26,1.79,1.79,0,0,1,1,.3,1.92,1.92,0,0,1,.65.88,3.56,3.56,0,0,1,.23,1.38v.32H101.7v-.77h2.36a1.6,1.6,0,0,0-.3-.92.88.88,0,0,0-.71-.33,1,1,0,0,0-.84.35,1.52,1.52,0,0,0-.3,1v.61a1.26,1.26,0,0,0,.32.93,1.18,1.18,0,0,0,.9.32,1.66,1.66,0,0,0,.58-.11,1.72,1.72,0,0,0,.51-.33l.62.63a2.59,2.59,0,0,1-.8.53,2.25,2.25,0,0,1-.91.19A2.41,2.41,0,0,1,102,72.06Z"/><path class="cls-2" d="M107.43,71a.41.41,0,0,0,.07.27.29.29,0,0,0,.22.1h.45v.9h-.56a1.08,1.08,0,0,1-.84-.33,1.39,1.39,0,0,1-.3-1V65.44h1Z"/><path class="cls-2" d="M110.27,72.06a1.71,1.71,0,0,1-.72-.74,2.54,2.54,0,0,1-.25-1.18v-.55a2.87,2.87,0,0,1,.24-1.23,1.72,1.72,0,0,1,.7-.78,2.11,2.11,0,0,1,1.1-.26,1.77,1.77,0,0,1,1,.3,1.94,1.94,0,0,1,.66.88,3.77,3.77,0,0,1,.22,1.38v.32H110v-.77h2.37a1.6,1.6,0,0,0-.31-.92.86.86,0,0,0-.71-.33,1,1,0,0,0-.84.35,1.52,1.52,0,0,0-.3,1v.61a1.26,1.26,0,0,0,.32.93,1.2,1.2,0,0,0,.9.32,1.66,1.66,0,0,0,.58-.11,1.72,1.72,0,0,0,.51-.33l.63.63a2.52,2.52,0,0,1-.81.53,2.25,2.25,0,0,1-.91.19A2.44,2.44,0,0,1,110.27,72.06Z"/><path class="cls-2" d="M115.67,72.23A2.8,2.8,0,0,1,115,72a2.49,2.49,0,0,1-.6-.42l.56-.69a3,3,0,0,0,.78.44,2.15,2.15,0,0,0,.77.15,1.61,1.61,0,0,0,.85-.17.58.58,0,0,0,.28-.53.43.43,0,0,0-.15-.35.76.76,0,0,0-.39-.15c-.15,0-.36,0-.64-.08h-.23a3.75,3.75,0,0,1-.8-.14,1.1,1.1,0,0,1-.55-.38,1.26,1.26,0,0,1-.22-.79,1.6,1.6,0,0,1,.21-.85,1.24,1.24,0,0,1,.63-.51,2.67,2.67,0,0,1,1-.17,3.41,3.41,0,0,1,.73.07,3,3,0,0,1,.65.2,4.16,4.16,0,0,1,.61.35l-.58.7a3,3,0,0,0-.72-.35,2.09,2.09,0,0,0-.69-.12,1.33,1.33,0,0,0-.73.17.56.56,0,0,0-.24.5.34.34,0,0,0,.14.29.73.73,0,0,0,.35.13l.6.06h.17a4,4,0,0,1,.87.14,1.16,1.16,0,0,1,.6.4,1.42,1.42,0,0,1,.24.88,1.56,1.56,0,0,1-.22.87,1.35,1.35,0,0,1-.68.52,3.28,3.28,0,0,1-1.13.17A4.12,4.12,0,0,1,115.67,72.23Z"/><path class="cls-2" d="M120.83,72.23a2.8,2.8,0,0,1-.7-.26,2.76,2.76,0,0,1-.61-.42l.57-.69a2.8,2.8,0,0,0,.78.44,2.15,2.15,0,0,0,.77.15,1.61,1.61,0,0,0,.85-.17.58.58,0,0,0,.28-.53.43.43,0,0,0-.15-.35.8.8,0,0,0-.39-.15c-.15,0-.37,0-.64-.08h-.24a4,4,0,0,1-.8-.14,1,1,0,0,1-.54-.38,1.2,1.2,0,0,1-.22-.79A1.6,1.6,0,0,1,120,68a1.24,1.24,0,0,1,.63-.51,2.63,2.63,0,0,1,1-.17,3.32,3.32,0,0,1,.72.07,3,3,0,0,1,.66.2,4.16,4.16,0,0,1,.61.35l-.58.7a3,3,0,0,0-.72-.35,2.09,2.09,0,0,0-.69-.12,1.31,1.31,0,0,0-.73.17.56.56,0,0,0-.24.5.34.34,0,0,0,.14.29.73.73,0,0,0,.34.13l.6.06H122a4,4,0,0,1,.87.14,1.16,1.16,0,0,1,.6.4,1.42,1.42,0,0,1,.24.88,1.56,1.56,0,0,1-.22.87,1.4,1.4,0,0,1-.68.52,3.32,3.32,0,0,1-1.13.17A4.12,4.12,0,0,1,120.83,72.23Z"/><path class="cls-2" d="M127,65.44h4.8v.91H127Zm1.93.56h.95v6.24h-.95Z"/><path class="cls-2" d="M133,72.06a1.74,1.74,0,0,1-.73-.74,2.67,2.67,0,0,1-.25-1.18v-.55a2.87,2.87,0,0,1,.24-1.23,1.77,1.77,0,0,1,.7-.78,2.17,2.17,0,0,1,1.11-.26,1.79,1.79,0,0,1,1,.3,1.92,1.92,0,0,1,.65.88,3.76,3.76,0,0,1,.23,1.38v.32h-3.28v-.77h2.37a1.67,1.67,0,0,0-.3-.92.88.88,0,0,0-.71-.33,1,1,0,0,0-.84.35,1.52,1.52,0,0,0-.3,1v.61a1.26,1.26,0,0,0,.32.93,1.18,1.18,0,0,0,.9.32,1.7,1.7,0,0,0,.58-.11,1.72,1.72,0,0,0,.51-.33l.62.63a2.52,2.52,0,0,1-.81.53,2.24,2.24,0,0,1-.9.19A2.41,2.41,0,0,1,133,72.06Z"/><path class="cls-2" d="M138.29,72.06a1.57,1.57,0,0,1-.72-.72,2.34,2.34,0,0,1-.25-1.14v-.8a2.36,2.36,0,0,1,.25-1.13,1.6,1.6,0,0,1,.72-.71,2.45,2.45,0,0,1,1.13-.24,2.71,2.71,0,0,1,.71.09,2.05,2.05,0,0,1,.6.26,1.81,1.81,0,0,1,.45.42l-.69.62a1.38,1.38,0,0,0-.48-.36,1.29,1.29,0,0,0-.58-.13,1.16,1.16,0,0,0-.85.31,1.21,1.21,0,0,0-.31.87v.8a1.25,1.25,0,0,0,.31.89,1.11,1.11,0,0,0,.85.31,1.27,1.27,0,0,0,.58-.13,1.29,1.29,0,0,0,.48-.39l.69.67a1.61,1.61,0,0,1-.45.41,2,2,0,0,1-.6.26,2.71,2.71,0,0,1-.71.09A2.33,2.33,0,0,1,138.29,72.06Z"/><path class="cls-2" d="M142.42,65.44h1v6.8h-1Zm3,3.86a1.12,1.12,0,0,0-.27-.8,1,1,0,0,0-.75-.28,1,1,0,0,0-.72.25.89.89,0,0,0-.25.68l-.1-.93a1.68,1.68,0,0,1,.59-.67,1.39,1.39,0,0,1,.8-.23,1.52,1.52,0,0,1,1.22.51,2.21,2.21,0,0,1,.43,1.46v2.95h-.95Z"/><path class="cls-2" d="M148,67.39h1v4.85h-1Zm2.95,1.91a1.12,1.12,0,0,0-.27-.8,1,1,0,0,0-.75-.28,1,1,0,0,0-.72.25.94.94,0,0,0-.25.7l-.1-.94a1.71,1.71,0,0,1,.59-.68,1.49,1.49,0,0,1,.8-.23,1.51,1.51,0,0,1,1.22.51,2.21,2.21,0,0,1,.43,1.46v2.95h-1Z"/><path class="cls-2" d="M154.29,72.06a1.6,1.6,0,0,1-.69-.72,2.52,2.52,0,0,1-.23-1.14v-.79a2.45,2.45,0,0,1,.23-1.13,1.6,1.6,0,0,1,.69-.72,2.55,2.55,0,0,1,2.16,0,1.58,1.58,0,0,1,.68.72,2.45,2.45,0,0,1,.24,1.13v.8a2.45,2.45,0,0,1-.24,1.13,1.58,1.58,0,0,1-.68.72,2.46,2.46,0,0,1-2.16,0Zm1.85-1a1.3,1.3,0,0,0,.27-.88v-.8a1.3,1.3,0,0,0-.27-.88,1.12,1.12,0,0,0-1.55,0,1.3,1.3,0,0,0-.27.88v.8a1.3,1.3,0,0,0,.27.88,1.12,1.12,0,0,0,1.55,0Z"/><path class="cls-2" d="M159.87,71a.41.41,0,0,0,.08.27.27.27,0,0,0,.22.1h.44v.9h-.56a1.08,1.08,0,0,1-.84-.33,1.44,1.44,0,0,1-.29-1V65.44h1Z"/><path class="cls-2" d="M162.66,72.06a1.53,1.53,0,0,1-.68-.72,2.52,2.52,0,0,1-.24-1.14v-.79a2.45,2.45,0,0,1,.24-1.13,1.53,1.53,0,0,1,.68-.72,2.55,2.55,0,0,1,2.16,0,1.6,1.6,0,0,1,.69.72,2.45,2.45,0,0,1,.23,1.13v.8a2.45,2.45,0,0,1-.23,1.13,1.6,1.6,0,0,1-.69.72,2.46,2.46,0,0,1-2.16,0Zm1.86-1a1.3,1.3,0,0,0,.27-.88v-.8a1.3,1.3,0,0,0-.27-.88,1,1,0,0,0-.78-.31,1,1,0,0,0-.77.31,1.3,1.3,0,0,0-.27.88v.8a1.3,1.3,0,0,0,.27.88,1,1,0,0,0,.77.31A1,1,0,0,0,164.52,71.09Z"/><path class="cls-2" d="M167.92,72.09a1.45,1.45,0,0,1-.57-.67,2.65,2.65,0,0,1-.2-1.07V69.28a2.81,2.81,0,0,1,.19-1.07,1.52,1.52,0,0,1,.56-.68,1.67,1.67,0,0,1,.88-.23,1.46,1.46,0,0,1,.79.23,1.68,1.68,0,0,1,.58.63l-.1,1a1.22,1.22,0,0,0-.11-.53.7.7,0,0,0-.33-.33,1,1,0,0,0-.51-.12.9.9,0,0,0-.73.3,1.16,1.16,0,0,0-.26.82v1.06a1.16,1.16,0,0,0,.26.82,1.11,1.11,0,0,0,1.24.16.73.73,0,0,0,.33-.34,1.27,1.27,0,0,0,.11-.54l.07,1a1.4,1.4,0,0,1-.48.6,1.34,1.34,0,0,1-.81.24A1.67,1.67,0,0,1,167.92,72.09Zm0,1.92a1.57,1.57,0,0,1-.67-.57l.64-.59a1.41,1.41,0,0,0,.45.4,1.18,1.18,0,0,0,.55.14,1.14,1.14,0,0,0,.84-.3,1.16,1.16,0,0,0,.3-.85V67.39h1V72.1a2.52,2.52,0,0,1-.25,1.14,1.67,1.67,0,0,1-.71.73,2.45,2.45,0,0,1-1.13.24A2.2,2.2,0,0,1,167.94,74Z"/><path class="cls-2" d="M172.65,65.44h.95v1h-.95Zm0,2h.95v4.85h-.95Z"/><path class="cls-2" d="M176.08,72.06a1.74,1.74,0,0,1-.73-.74,2.67,2.67,0,0,1-.25-1.18v-.55a2.87,2.87,0,0,1,.24-1.23,1.77,1.77,0,0,1,.7-.78,2.17,2.17,0,0,1,1.11-.26,1.74,1.74,0,0,1,1,.3,1.87,1.87,0,0,1,.66.88,3.76,3.76,0,0,1,.23,1.38v.32h-3.28v-.77h2.37a1.6,1.6,0,0,0-.31-.92.84.84,0,0,0-.7-.33,1,1,0,0,0-.84.35,1.52,1.52,0,0,0-.3,1v.61a1.26,1.26,0,0,0,.32.93,1.18,1.18,0,0,0,.9.32,1.7,1.7,0,0,0,.58-.11,1.72,1.72,0,0,0,.51-.33l.62.63a2.52,2.52,0,0,1-.81.53,2.24,2.24,0,0,1-.9.19A2.41,2.41,0,0,1,176.08,72.06Z"/><path class="cls-2" d="M181.48,72.23a2.87,2.87,0,0,1-.71-.26,3,3,0,0,1-.6-.42l.57-.69a2.8,2.8,0,0,0,.78.44,2.11,2.11,0,0,0,.77.15,1.57,1.57,0,0,0,.84-.17.58.58,0,0,0,.29-.53.41.41,0,0,0-.16-.35.76.76,0,0,0-.38-.15c-.15,0-.37,0-.65-.08H182a3.86,3.86,0,0,1-.8-.14,1,1,0,0,1-.54-.38,1.2,1.2,0,0,1-.22-.79,1.6,1.6,0,0,1,.21-.85,1.26,1.26,0,0,1,.62-.51,2.69,2.69,0,0,1,1-.17,3.38,3.38,0,0,1,.72.07,3,3,0,0,1,.66.2,3.61,3.61,0,0,1,.6.35l-.57.7a3.38,3.38,0,0,0-.72-.35,2.18,2.18,0,0,0-.69-.12,1.29,1.29,0,0,0-.73.17.57.57,0,0,0-.25.5.34.34,0,0,0,.14.29.77.77,0,0,0,.35.13l.6.06h.18a4,4,0,0,1,.87.14,1.25,1.25,0,0,1,.6.4,1.42,1.42,0,0,1,.24.88,1.56,1.56,0,0,1-.23.87,1.33,1.33,0,0,1-.67.52,3.32,3.32,0,0,1-1.13.17A4.12,4.12,0,0,1,181.48,72.23Z"/><path class="cls-2" d="M188.58,65.44h1v6.8h-1Zm.5,3.26h2.17a1,1,0,0,0,.54-.15,1,1,0,0,0,.37-.41,1.48,1.48,0,0,0,.12-.61,1.49,1.49,0,0,0-.12-.62.93.93,0,0,0-.37-.41,1,1,0,0,0-.54-.15h-2.17v-.91h2.14a2.2,2.2,0,0,1,1.07.26,1.81,1.81,0,0,1,.72.73,2.52,2.52,0,0,1,0,2.19,1.87,1.87,0,0,1-.72.73,2.2,2.2,0,0,1-1.07.25h-2.14Z"/><path class="cls-2" d="M197.27,67.39h1l-1.82,4.85h-.72l-1.82-4.85h1l1.19,3.46Z"/><path class="cls-2" d="M199.11,67.39h2.19v.86h-2.19Zm.78,4.55a1.43,1.43,0,0,1-.28-1V66h1v5a.41.41,0,0,0,.07.27.23.23,0,0,0,.2.1h.46v.9h-.55A1,1,0,0,1,199.89,71.94Z"/><path class="cls-2" d="M202.64,71.24h1v1h-1Z"/><path class="cls-2" d="M208,65.44H209v6.8H208Zm.48,5.89h3.89v.91H208.5Z"/><path class="cls-2" d="M213.23,67.39h2.19v.86h-2.19Zm.78,4.55a1.48,1.48,0,0,1-.27-1V66h.95v5a.41.41,0,0,0,.07.27.25.25,0,0,0,.2.1h.46v.9h-.55A1,1,0,0,1,214,71.94Z"/><path class="cls-2" d="M217.55,72.09a1.45,1.45,0,0,1-.57-.67,2.66,2.66,0,0,1-.19-1.07V69.28a2.63,2.63,0,0,1,.19-1.07,1.4,1.4,0,0,1,.56-.68,1.62,1.62,0,0,1,.88-.23,1.48,1.48,0,0,1,.79.23,1.66,1.66,0,0,1,.57.63l-.1,1a1.09,1.09,0,0,0-.11-.53.68.68,0,0,0-.32-.33,1.05,1.05,0,0,0-.52-.12.91.91,0,0,0-.73.3,1.2,1.2,0,0,0-.26.82v1.06a1.2,1.2,0,0,0,.26.82.94.94,0,0,0,.73.28,1,1,0,0,0,.52-.12.71.71,0,0,0,.32-.34,1.13,1.13,0,0,0,.11-.54l.07,1a1.37,1.37,0,0,1-.47.6,1.35,1.35,0,0,1-.82.24A1.67,1.67,0,0,1,217.55,72.09Zm2.13-6.65h1v6.8h-1Z"/><path class="cls-2" d="M222.12,71.24h1v1h-1Z"/></g></g><g id="Group_3" data-name="Group 3"><path id="Path_6" data-name="Path 6" class="cls-6" d="M171.43,45V56.08c0,.86,0,.87-.88.87h-6.24a.35.35,0,0,1-.36-.33v0c0-.22,0-.43,0-.65,0-6.66,0-13.32,0-20a15.81,15.81,0,0,0-1.83-7.74,12.15,12.15,0,0,0-9.6-6.57,14,14,0,0,0-7.08.88,12.43,12.43,0,0,0-5.6,4.66,14,14,0,0,0-2.34,6.75,17.64,17.64,0,0,0,1,8A13.4,13.4,0,0,0,143.05,48a12.4,12.4,0,0,0,6.23,2.38,16,16,0,0,0,10.63-2.66c.36-.23.71-.48,1.06-.72.13-.08.24-.24.41-.14s.12.28.13.43v.23c0,2.15,0,4.31,0,6.46a1.12,1.12,0,0,1-.7,1.14,22.64,22.64,0,0,1-8.52,2.4,20.7,20.7,0,0,1-8.38-.94,20,20,0,0,1-6.65-3.77,20.65,20.65,0,0,1-6-8.28,22.4,22.4,0,0,1-1.43-5.87,24.48,24.48,0,0,1,2.12-13,20.41,20.41,0,0,1,8.64-8.95,19.06,19.06,0,0,1,6.4-2.06,23.81,23.81,0,0,1,5.06-.21,20.53,20.53,0,0,1,18.41,14.71,22.69,22.69,0,0,1,.8,5C171.56,38,171.35,41.89,171.43,45Z"/><path id="Path_7" data-name="Path 7" class="cls-6" d="M93.6,44V56.08c0,.87,0,.87-.87.87H86.55a.37.37,0,0,1-.4-.33v-.06c0-.14,0-.28,0-.41,0-7.77,0-15.54,0-23.3a20.55,20.55,0,0,1,2.16-9.23,15.9,15.9,0,0,1,12.4-9,21,21,0,0,1,7.7.26,15.18,15.18,0,0,1,7,3.58,17.2,17.2,0,0,1,5,8,24.07,24.07,0,0,1,1,6.48c.2,7.72,0,15.45.09,23.18,0,.11,0,.23,0,.35a.42.42,0,0,1-.38.43h-6.71a.35.35,0,0,1-.36-.34v0c0-.21,0-.42,0-.64q0-11.45,0-22.89a13,13,0,0,0-.81-4.86,9.44,9.44,0,0,0-7.86-6.37,9.92,9.92,0,0,0-11,6.25,12.92,12.92,0,0,0-.83,4.73C93.61,36.5,93.6,40.23,93.6,44Z"/><path id="Path_8" data-name="Path 8" class="cls-6" d="M195.71,47.68c.16-.11.17-.3.23-.46l5.67-15.72,3.56-9.86c.71-1.95,1.41-3.91,2.12-5.86.18-.52.25-.57.8-.57h6.7c.35,0,.39.11.29.46,0,.07-.05.14-.08.22q-3.09,8.38-6.2,16.77c-1.61,4.36-3.24,8.73-4.86,13.1-.94,2.53-1.86,5.06-2.82,7.58a8.53,8.53,0,0,1-1.58,2.7,4.61,4.61,0,0,1-3.5,1.72,7.39,7.39,0,0,1-1.56-.06,5.07,5.07,0,0,1-3.43-2.58,16.55,16.55,0,0,1-1.32-2.91c-.77-2.12-1.55-4.23-2.33-6.35-.92-2.51-1.85-5-2.77-7.54l-5.24-14.21-3-8.3c0-.08-.06-.15-.08-.22s0-.35.22-.37a3.7,3.7,0,0,1,.47,0h6.17c.7,0,.71,0,1,.67l3.8,10.52,2.79,7.66,3.37,9.3c.48,1.34,1,2.67,1.45,4C195.54,47.48,195.54,47.63,195.71,47.68Z"/></g><g id="Group_5" data-name="Group 5"><path id="Path_9" data-name="Path 9" class="cls-2" d="M221.7,10.36v.69h-1.36v3.81h-.83V11.05h-1.36v-.69Z"/><path id="Path_10" data-name="Path 10" class="cls-2" d="M224.59,13.2c0,.07,0,.14.08.22l.09-.23c0-.07.07-.14.1-.2l1.34-2.5.05-.07a.09.09,0,0,1,.06,0l.07,0h.73v4.5h-.74V11.78a1.5,1.5,0,0,1,0-.2L225,14.13a.41.41,0,0,1-.12.14.3.3,0,0,1-.18,0h-.11a.3.3,0,0,1-.18,0,.41.41,0,0,1-.12-.14L223,11.57c0,.07,0,.14,0,.2v3.09h-.74v-4.5H223l.07,0s0,0,.06,0a.18.18,0,0,1,0,.07l1.35,2.5Z"/></g></svg>